<?xml version="1.0" encoding="UTF-8" standalone="no"?>
<!-- Created with Inkscape (http://www.inkscape.org/) -->

<svg
   width="65.542755mm"
   height="61.266262mm"
   viewBox="0 0 65.542755 61.266262"
   version="1.1"
   id="svg1"
   xml:space="preserve"
   inkscape:version="1.3 (0e150ed6c4, 2023-07-21)"
   sodipodi:docname="distinguished_paper.svg"
   inkscape:export-filename="..\..\lanpirot.github.io\distinguished_paper_mini.png"
   inkscape:export-xdpi="11.608332"
   inkscape:export-ydpi="11.608332"
   xmlns:inkscape="http://www.inkscape.org/namespaces/inkscape"
   xmlns:sodipodi="http://sodipodi.sourceforge.net/DTD/sodipodi-0.dtd"
   xmlns="http://www.w3.org/2000/svg"
   xmlns:svg="http://www.w3.org/2000/svg"><sodipodi:namedview
     id="namedview1"
     pagecolor="#ffffff"
     bordercolor="#000000"
     borderopacity="0.25"
     inkscape:showpageshadow="2"
     inkscape:pageopacity="0.0"
     inkscape:pagecheckerboard="0"
     inkscape:deskcolor="#d1d1d1"
     inkscape:document-units="mm"
     inkscape:zoom="4.4044578"
     inkscape:cx="102.28274"
     inkscape:cy="71.518451"
     inkscape:window-width="3200"
     inkscape:window-height="1712"
     inkscape:window-x="-8"
     inkscape:window-y="-8"
     inkscape:window-maximized="1"
     inkscape:current-layer="layer1" /><defs
     id="defs1" /><g
     inkscape:label="Layer 1"
     inkscape:groupmode="layer"
     id="layer1"
     transform="translate(-72.264507,-117.33301)"><path
       id="path1-2-3"
       style="fill:#000000;stroke-width:0.940168"
       d="M 101.9738 117.33301 C 101.47801 117.33435 99.696133 117.80053 98.985357 118.11487 C 97.481407 118.77999 96.082204 119.97 95.416582 121.14931 C 94.644724 122.51684 94.641659 122.51923 92.978488 123.57242 C 89.329221 125.88328 85.62789 129.48134 83.502581 132.78375 C 81.769454 135.47676 80.540382 138.2124 80.017522 140.54038 C 79.9233 140.9599 79.75835 141.6131 79.651136 141.99145 C 78.740901 145.20365 79.080501 151.06753 80.395794 154.8501 C 81.234856 157.26311 82.203185 159.22928 83.340317 160.82958 C 85.125713 163.34217 86.502554 164.89349 88.546201 166.69434 C 91.295956 169.11741 93.274499 170.39247 97.134824 172.23043 C 99.913819 173.55356 101.4909 174.13161 102.6363 174.24582 C 103.06514 174.28859 103.40859 174.37107 103.40059 174.42927 C 103.37095 174.63692 101.89171 175.10518 99.076824 175.79766 C 94.320187 176.96783 94.742414 176.83571 94.703964 177.16295 C 94.659831 177.53854 95.040986 178.14601 95.45534 178.36029 C 95.695013 178.48427 95.953883 178.51455 96.424273 178.47295 C 97.582577 178.3706 103.19213 176.4745 104.5013 175.74288 L 105.05785 175.43179 L 105.55963 175.68397 C 106.03483 175.92275 108.12383 176.74003 109.10257 177.06993 C 109.80483 177.30664 113.72064 178.40515 114.20303 178.50085 C 114.44033 178.54795 114.67216 178.592 114.71876 178.598 C 114.89968 178.62279 115.40494 178.29011 115.57091 178.0368 C 115.81286 177.66751 115.78874 177.31133 115.50373 177.04358 C 115.21987 176.7769 112.33651 175.98676 110.38724 175.6416 C 109.119 175.41702 106.92413 174.6457 106.94353 174.43133 C 106.94868 174.37439 107.41036 174.24736 107.96982 174.14866 C 109.45036 173.88742 110.23522 173.62149 111.77734 172.85985 C 112.5336 172.48634 113.65282 171.95284 114.26401 171.67388 C 114.8752 171.39493 115.54331 171.06118 115.74919 170.93232 C 115.95508 170.80346 116.43132 170.54354 116.80752 170.3551 C 117.18372 170.16665 117.96797 169.67631 118.55005 169.26524 C 119.13213 168.85417 119.98757 168.25222 120.45123 167.92785 C 121.90266 166.91249 124.63738 164.06653 126.16974 161.97576 C 127.79668 159.75598 129.36558 156.65953 130.12868 154.16229 C 130.81757 151.90789 131.19663 149.10546 131.19579 146.2775 C 131.19524 144.38018 131.07538 143.36997 130.62012 141.42198 C 129.98828 138.71837 129.74318 138.02065 128.70034 135.95875 C 126.98377 132.56471 125.76463 130.80226 123.49342 128.43207 C 121.91737 126.78734 119.0076 124.44707 117.30724 123.45667 C 116.26112 122.84736 116.12009 122.70481 115.60811 121.73533 C 114.99035 120.56552 113.67518 119.18697 112.67444 118.66109 C 111.74638 118.17341 110.67578 117.80587 109.58058 117.59811 C 108.54407 117.40152 108.0195 117.39198 108.0215 117.5702 C 108.0245 117.79431 108.96441 119.47047 109.41469 120.05481 C 110.02385 120.84532 111.16451 121.88779 111.78819 122.22367 C 112.08219 122.382 112.91425 122.73283 113.63718 123.00295 C 114.42398 123.29694 115.1676 123.65468 115.48926 123.89488 C 115.7848 124.11557 116.42615 124.49735 116.91449 124.74289 C 118.14384 125.36099 119.19934 126.19253 121.34213 128.23002 C 123.50404 130.28571 124.64694 131.61068 125.45196 132.99562 C 125.77339 133.5486 126.33083 134.5011 126.69064 135.11229 C 128.01124 137.35554 128.55125 138.64666 129.09411 140.85664 C 129.6657 143.18358 129.84104 144.43635 129.85324 146.2775 C 129.8708 148.92909 129.53889 151.0097 128.58665 154.215 C 127.5464 157.71652 124.91496 161.94544 122.02633 164.75751 C 120.92279 165.83179 118.77115 167.5679 117.65037 168.28856 C 115.75284 169.50865 110.69806 171.92478 109.02505 172.4113 C 105.62734 173.39938 102.47625 173.12161 98.782785 171.50903 C 96.808821 170.6472 94.449454 169.38872 92.972804 168.40948 C 89.63595 166.19665 86.438065 162.97586 84.395549 159.77125 C 83.653962 158.60773 82.526875 156.40427 82.200335 155.47952 C 81.792145 154.32353 81.204705 152.14481 80.920826 150.73356 C 80.513841 148.71029 80.451279 145.48892 80.776649 143.31437 C 80.912256 142.40806 81.582034 139.5989 81.710442 139.39833 C 81.784973 139.28191 81.979157 138.78206 82.14194 138.28729 C 82.608223 136.87004 83.347107 135.46844 84.828598 133.19147 C 85.156118 132.68809 85.54349 132.07603 85.689011 131.83135 C 86.040055 131.24111 89.696523 127.58769 91.033387 126.49162 C 91.615471 126.01438 92.544365 125.34764 93.097344 125.00954 C 93.650322 124.67145 94.419678 124.18324 94.807317 123.92486 C 95.309525 123.59011 95.826889 123.36504 96.60669 123.14196 C 98.387039 122.63265 98.928081 122.32016 100.13877 121.10074 C 101.0425 120.1905 101.27532 119.88096 101.70147 119.02541 C 101.97691 118.47243 102.23141 117.86532 102.26681 117.67614 C 102.3291 117.34315 102.31955 117.33208 101.9738 117.33301 z M 94.194435 118.15001 C 93.914305 117.97688 91.978546 119.34151 91.317091 120.17831 C 90.695622 120.96453 90.229149 122.32847 90.159539 123.56364 C 90.125209 124.17277 90.142697 124.54073 90.204497 124.51603 C 90.294665 124.47993 90.91871 124.00001 92.605384 122.67015 C 93.640467 121.85404 94.147299 120.76587 94.235259 119.17217 C 94.264529 118.64182 94.246175 118.18201 94.194435 118.15001 z M 116.55741 118.24923 C 116.35848 118.26812 116.35267 118.54849 116.41065 119.44348 C 116.45741 120.1652 116.54259 120.52952 116.79409 121.0842 C 117.24634 122.08162 117.56782 122.42039 119.6921 124.1388 C 120.02906 124.41139 120.34467 124.63437 120.39387 124.63437 C 120.66007 124.63437 120.5767 123.3067 120.23419 122.09448 C 119.79818 120.55128 118.19495 118.7687 116.82561 118.30453 C 116.71164 118.2659 116.62372 118.24294 116.55741 118.24923 z M 121.95346 120.1132 C 121.7689 120.17418 121.6675 121.79806 121.78035 122.88823 C 121.97436 124.76239 122.47947 125.85986 123.93577 127.57425 C 124.46622 128.1987 125.03543 128.89096 125.20081 129.11214 C 125.3662 129.33333 125.55632 129.49575 125.62352 129.47335 C 125.80699 129.41218 125.89248 128.74634 125.89948 127.32361 C 125.90926 125.27185 125.4164 123.7726 124.20656 122.17354 C 123.61273 121.38868 122.14763 120.049 121.95346 120.1132 z M 88.55912 120.13026 C 88.276785 120.19015 87.568399 120.76914 86.81504 121.56996 C 86.219832 122.20268 85.890709 122.66632 85.590309 123.29647 C 84.941831 124.65677 84.792774 125.39105 84.790874 127.2275 C 84.789994 128.10063 84.825696 128.94586 84.870456 129.10593 C 84.978147 129.49103 85.091601 129.47291 85.446131 129.01498 C 85.608686 128.80502 86.022332 128.29337 86.364938 127.87759 C 88.266874 125.56947 88.752507 124.2931 88.756007 121.59787 C 88.757074 120.78714 88.714121 120.17467 88.653171 120.13697 C 88.631338 120.12348 88.599453 120.1217 88.55912 120.13026 z M 113.09096 124.35274 C 112.90626 124.34528 112.72786 124.3497 112.55559 124.36617 C 111.85151 124.43351 110.28366 124.76948 110.17744 124.8757 C 110.07241 124.98073 110.6425 125.7603 111.15826 126.21722 C 112.1075 127.05816 112.91076 127.46613 114.21078 127.76648 C 114.84296 127.91251 116.25054 127.89692 118.1785 127.72256 C 118.82863 127.66376 118.97832 127.61581 119.00842 127.45746 C 119.06018 127.1854 118.79297 126.92691 117.72116 126.20999 C 115.97194 125.03995 114.38385 124.4049 113.09096 124.35274 z M 97.277451 124.42405 C 96.227619 124.42657 95.299166 124.67592 94.317424 125.21832 C 93.291409 125.78517 91.153208 127.38199 91.108318 127.61507 C 91.081792 127.75276 91.203094 127.78594 91.795615 127.80214 C 92.191359 127.81298 92.800804 127.86369 93.150054 127.91479 C 93.499304 127.96589 94.261408 127.98799 94.843491 127.96389 C 96.442037 127.89762 97.480804 127.5285 98.571428 126.63942 C 99.234701 126.09872 100.14608 124.97041 100.0163 124.85038 C 99.856901 124.70297 98.052966 124.42205 97.277451 124.42405 z M 128.25489 124.46281 C 128.20905 124.44709 128.17256 124.45051 128.1474 124.47573 C 127.97978 124.64371 127.51377 126.70354 127.38104 127.8626 C 127.25854 128.93225 127.30827 130.16009 127.51436 131.14354 C 127.62611 131.67685 128.75037 134.42593 129.04244 134.88026 C 129.12896 135.01488 129.25566 135.10646 129.32356 135.08386 C 129.4955 135.02654 130.20828 133.24156 130.51677 132.09593 C 131.00788 130.27211 130.81167 128.61315 129.87804 126.69833 C 129.3527 125.62087 128.57574 124.5728 128.25489 124.46281 z M 82.408074 124.58011 C 82.286626 124.62862 82.05994 124.82665 81.738864 125.16509 C 80.48244 126.48947 79.844873 128.20004 79.846473 130.24385 C 79.847476 131.55705 80.025589 132.4379 80.595781 133.9475 C 80.760793 134.38438 80.924987 134.8249 80.960617 134.92677 C 81.044653 135.167 81.271137 135.1626 81.493918 134.91643 C 81.591216 134.80892 81.977532 133.82101 82.35278 132.7207 C 83.123594 130.46051 83.322678 129.34975 83.213193 127.91531 C 83.140465 126.96245 82.665104 124.75998 82.493857 124.58166 C 82.477216 124.56433 82.448556 124.56394 82.408074 124.58011 z M 118.44928 129.08423 C 118.09962 129.09046 117.74376 129.12666 117.37907 129.19172 C 116.31744 129.3811 115.5337 129.62839 115.5337 129.77463 C 115.5337 129.85066 115.87909 130.2663 116.3011 130.69809 C 116.90372 131.31468 117.26165 131.57691 117.96818 131.9192 C 119.08794 132.46167 120.02767 132.6453 122.34465 132.77548 C 123.32556 132.83059 124.15355 132.90127 124.18485 132.93257 L 124.18485 132.93206 C 124.21615 132.96386 124.27985 132.96603 124.32645 132.93723 C 124.71775 132.69539 122.66887 130.4619 121.48166 129.83612 C 120.48932 129.31308 119.49827 129.06553 118.44928 129.08423 z M 91.54085 129.26923 C 90.289422 129.23114 89.485547 129.49594 88.488323 130.17357 C 87.939693 130.54637 85.794431 132.67926 85.794431 132.85196 C 85.794431 132.96686 86.101718 132.98309 87.408802 132.93619 C 90.309023 132.83213 91.067194 132.68533 92.31703 131.98638 C 93.216746 131.48323 94.776971 129.87709 94.568572 129.66869 C 94.54331 129.64343 93.821638 129.52437 92.965052 129.40411 C 92.424565 129.32823 91.957992 129.28193 91.54085 129.26923 z M 133.44372 130.69447 C 133.19043 130.59728 132.65781 131.30613 131.99368 132.6251 C 131.15383 134.29305 130.86321 135.38743 130.85421 136.91114 C 130.8485 137.93387 131.09155 140.08583 131.36478 141.43541 C 131.3913 141.56638 131.45692 141.67364 131.51102 141.67364 C 131.56513 141.67364 131.9849 141.11215 132.44378 140.42566 C 133.26251 139.20083 134.02868 137.69631 134.26021 136.85843 C 134.44867 136.17644 134.51153 134.49345 134.38268 133.5775 C 134.23434 132.52294 133.6667 130.78007 133.44372 130.69447 z M 77.321563 130.81022 C 77.239273 130.80388 77.16969 130.89528 77.053879 131.0376 C 76.596222 131.59999 76.257296 132.89498 76.195016 134.31854 C 76.1221 135.98525 76.335875 137.24254 76.918486 138.57099 C 77.322866 139.49304 78.251342 141.01091 78.736463 141.5429 C 78.856596 141.67465 78.987612 141.74595 79.027402 141.70155 C 79.158392 141.55531 79.566155 138.68099 79.624264 137.49354 C 79.724923 135.43649 79.25763 133.70109 78.110145 131.86804 C 77.63088 131.10244 77.458712 130.8208 77.321563 130.81022 z M 120.93234 134.15937 C 119.51473 134.15937 119.38852 134.22226 119.72931 134.75934 C 120.223 135.53737 120.98858 136.46554 121.48993 136.89357 C 122.49236 137.7494 123.01857 138.00029 125.16464 138.64644 C 125.83404 138.84799 126.69108 139.13076 127.06943 139.27482 L 127.75776 139.53682 L 127.79238 139.21074 C 127.8376 138.78424 127.15076 137.39299 126.44208 136.47499 C 125.88012 135.74706 124.96971 134.99768 124.26495 134.68286 C 123.53433 134.35648 122.28018 134.15937 120.93234 134.15937 z M 90.346607 134.27565 C 90.155165 134.2565 89.79116 134.26738 89.101722 134.29373 C 86.81276 134.3812 85.520692 134.84387 84.507171 135.93859 C 83.933281 136.55846 82.196201 139.24808 82.196201 139.51667 C 82.196201 139.74978 82.452044 139.69949 84.471514 139.06967 C 86.976567 138.28841 88.016724 137.75378 89.015939 136.73493 C 89.790866 135.94477 90.556931 134.80357 90.556931 134.43946 C 90.556931 134.34412 90.53805 134.29479 90.346607 134.27565 z M 137.11326 137.65218 C 137.06006 137.65618 136.39545 138.34125 135.63635 139.17612 C 134.5511 140.36969 134.16497 140.85229 133.82974 141.43386 C 132.81197 143.19954 132.36186 144.60761 132.20762 146.50539 C 132.17102 146.95309 132.08625 147.65191 132.01952 148.05827 C 131.95242 148.4646 131.92127 148.8361 131.95027 148.88354 C 131.97937 148.93094 132.42502 148.69619 132.94091 148.36212 C 133.7589 147.83245 134.02286 147.60225 135.00383 146.56223 C 135.75271 145.76831 136.25059 145.16879 136.49263 144.76854 C 137.47043 143.15132 137.77474 141.64014 137.57732 139.38489 C 137.46656 138.11947 137.33753 137.63764 137.11326 137.65218 z M 73.895932 137.86354 C 73.46194 137.86354 73.289937 141.70189 73.661321 143.1025 C 73.928383 144.10968 74.658849 145.60303 75.292746 146.43821 C 75.826315 147.14121 77.062369 148.3549 78.016094 149.11247 C 78.451815 149.45857 78.551287 149.50075 78.580917 149.35121 C 78.646314 149.02113 78.051998 144.92059 77.790268 143.89625 C 77.495082 142.74098 76.696231 141.05636 76.015182 140.15332 C 75.323005 139.23552 74.053352 137.86354 73.895932 137.86354 z M 122.44594 139.54354 C 122.314 139.52984 122.2333 139.53405 122.2227 139.56059 C 122.20547 139.60373 122.37714 140.14269 122.60407 140.75794 C 123.34956 142.77908 124.10674 143.77914 126.34906 145.70544 C 127.18199 146.42098 128.09414 147.2472 128.37633 147.5415 L 128.88947 148.07687 L 128.99593 147.81229 C 129.1211 147.50059 129.03808 145.58587 128.8626 144.73909 C 128.42293 142.61745 126.68277 140.73873 124.51972 140.04997 C 123.70026 139.78904 122.84175 139.58465 122.44594 139.54354 z M 87.589153 139.66291 C 87.124837 139.66291 85.215995 140.26208 84.509238 140.62978 C 82.930836 141.45095 81.995682 142.63332 81.632927 144.26677 C 81.3966 145.33093 81.216114 147.15314 81.294964 147.67896 C 81.332113 147.92672 81.377079 148.12958 81.394699 148.12958 C 81.412321 148.12958 81.559425 147.93838 81.721294 147.7048 C 81.883163 147.47122 82.495869 146.88771 83.083485 146.40824 C 85.248766 144.64145 86.13265 143.64508 86.908058 142.09687 C 87.572867 140.76947 87.882703 139.66291 87.589153 139.66291 z M 123.17148 145.4052 C 123.07508 145.38242 123.00791 145.38274 122.97976 145.41088 C 122.8978 145.49284 123.45177 148.84655 123.64742 149.4525 C 123.91007 150.26595 124.3739 151.14069 125.21838 152.41562 C 125.64249 153.05591 126.23404 154.03063 126.53303 154.58138 C 126.83202 155.13213 127.13379 155.61822 127.20379 155.66142 C 127.39544 155.77987 127.46291 155.58628 127.76655 154.04395 C 128.18698 151.90835 128.0455 150.49157 127.25495 148.92333 C 126.85366 148.12728 125.58021 146.80144 124.56261 146.11988 C 124.01235 145.75134 123.46066 145.47352 123.17148 145.4052 z M 87.096677 145.45274 L 86.789719 145.52922 C 86.131238 145.6937 84.881523 146.50255 84.154221 147.23506 C 83.216377 148.17963 82.785689 148.9096 82.499541 150.03902 C 82.299456 150.82875 82.28028 151.11518 82.33676 152.46885 C 82.395642 153.88015 82.485126 154.39175 82.825619 155.2661 L 82.946542 155.57615 L 83.48346 154.6837 C 83.778918 154.19302 84.119175 153.62498 84.239487 153.42125 C 84.359798 153.21752 84.585546 152.88394 84.741265 152.68021 C 85.968548 151.07453 86.798218 148.74628 87.021746 146.27956 L 87.096677 145.45274 z M 72.440207 146.74775 C 72.223262 146.78304 72.208572 147.306 72.38853 148.62774 C 72.709267 150.98336 73.340652 152.46359 74.636972 153.90235 C 74.957826 154.25842 75.567102 154.76205 76.4596 155.40821 C 77.628718 156.25463 77.931903 156.43145 78.830514 156.79158 C 79.397326 157.01853 79.874988 157.15881 79.891948 157.10371 C 79.908909 157.04859 79.795774 156.67526 79.640284 156.27379 C 79.484798 155.87232 79.246269 155.17473 79.110601 154.72401 C 78.535528 152.81343 77.788703 151.47112 76.420842 149.88916 C 75.970293 149.36808 75.49358 148.95972 74.190488 147.9792 C 73.279016 147.29337 72.491637 146.73875 72.440207 146.74775 z M 137.63158 147.13739 C 137.57958 147.12939 136.78024 147.65995 135.85546 148.31717 C 134.53333 149.25675 134.0498 149.64837 133.59203 150.14858 C 132.20224 151.66717 131.44188 152.95741 130.85318 154.79532 C 130.7143 155.22889 130.47038 155.89959 130.31161 156.28567 C 130.15284 156.67176 130.03679 157.03092 130.05374 157.08407 C 130.07074 157.13727 130.55475 157.00342 131.12913 156.78693 C 132.03987 156.44359 132.34758 156.27448 133.53364 155.4635 C 134.43909 154.84442 135.0572 154.36193 135.38313 154.02018 C 136.70002 152.63924 137.34362 151.21556 137.67653 148.94813 C 137.86332 147.67587 137.851 147.17215 137.63158 147.13739 z M 88.415976 150.88703 L 88.19015 151.00537 C 87.367821 151.43708 86.141709 152.8332 85.550518 154.01087 C 84.93655 155.23392 84.764166 157.16846 85.140724 158.61059 C 85.362626 159.46043 86.082407 160.74062 86.774732 161.51739 C 87.060005 161.83746 87.331603 162.09979 87.378313 162.09979 C 87.425026 162.09979 87.49712 161.73027 87.53851 161.27916 C 87.579899 160.82805 87.775098 159.73455 87.972592 158.84882 C 88.491902 156.51984 88.57302 155.61361 88.48884 153.08018 L 88.415976 150.88703 z M 121.72144 150.90254 C 121.69253 150.93141 121.63973 151.92682 121.60413 153.11429 C 121.52973 155.59672 121.61446 156.49602 122.1488 158.88138 C 122.34843 159.77252 122.54001 160.82546 122.57461 161.22129 C 122.60925 161.61711 122.65964 162.04788 122.68624 162.17885 C 122.78888 162.68377 123.23567 162.33451 123.98641 161.16238 C 124.83151 159.84291 125.21403 158.30331 125.14293 156.50788 C 125.07125 154.69724 124.45889 153.2731 123.21282 152.01926 C 122.5711 151.37354 121.81594 150.80794 121.72144 150.90254 z M 119.47299 155.96114 C 119.36135 155.96114 117.70456 159.39189 117.37752 160.30041 C 116.90415 161.61543 116.69972 162.58861 116.43235 164.79833 C 116.28444 166.02071 116.12409 167.22067 116.07579 167.46483 C 116.01919 167.75119 116.02746 167.94826 116.09956 168.02036 C 116.3127 168.2335 116.49456 168.12735 117.45296 167.23074 C 118.75344 166.0141 119.50831 165.07068 119.99286 164.05729 C 120.6271 162.73084 120.76504 162.06371 120.76904 160.30041 C 120.77229 158.89229 120.74773 158.68947 120.46983 157.84165 C 120.17763 156.95024 119.65331 155.96114 119.47299 155.96114 z M 90.634962 156.01437 C 90.435608 156.01437 89.843277 157.28705 89.605051 158.22715 C 89.209555 159.7879 89.358938 162.21393 89.932679 163.55241 C 90.442472 164.74171 92.022417 166.57024 93.352109 167.50979 C 94.314681 168.18988 94.375688 168.18331 94.197535 167.41781 C 94.119642 167.08311 93.95768 165.99974 93.83735 165.0102 C 93.577706 162.87502 93.233259 161.35629 92.738193 160.16554 C 92.112426 158.66043 90.771608 156.01437 90.634962 156.01437 z M 73.707313 156.6903 C 73.586061 156.68428 73.518177 156.69529 73.518177 156.72544 C 73.518177 156.78286 73.708559 157.23625 73.941407 157.73313 C 74.878898 159.73369 76.43787 161.59568 77.980437 162.55712 C 79.366927 163.42128 81.825288 164.16781 83.783701 164.31929 C 84.336679 164.36209 84.801129 164.40431 84.815679 164.41231 C 84.830229 164.42081 84.842034 164.38447 84.842034 164.33117 C 84.842034 164.14352 82.674694 161.50646 81.779688 160.6053 C 81.281348 160.10354 80.457826 159.42273 79.949826 159.09222 C 78.748333 158.31051 76.850753 157.40501 75.833281 157.128 C 74.913547 156.87759 74.07107 156.70834 73.707313 156.6903 z M 136.16965 156.92956 C 136.02707 156.94613 135.83632 156.98015 135.58209 157.02516 C 133.92948 157.31776 131.97209 158.15136 130.30076 159.27515 C 129.07942 160.09637 128.49756 160.64145 127.51075 161.88791 C 127.07296 162.44089 126.42255 163.2266 126.06484 163.63406 C 125.70713 164.04152 125.37478 164.44181 125.32638 164.52341 C 125.25244 164.64801 125.37215 164.65967 126.07466 164.59627 C 127.96215 164.42598 130.07883 163.89262 131.57717 163.2098 C 133.41838 162.37073 134.55825 161.2494 136.04356 158.81575 C 136.5023 158.06412 136.59443 157.8292 136.59443 157.41325 C 136.59443 156.98563 136.5974 156.87984 136.16965 156.92956 z M 115.06086 160.77119 C 114.85346 160.84028 114.4383 161.15029 113.47026 161.9308 C 110.94544 163.96654 110.01202 165.36232 109.07001 168.51232 C 108.82795 169.32173 108.51478 170.33097 108.37393 170.75507 C 108.23303 171.17918 108.14509 171.57059 108.17859 171.62479 C 108.27721 171.78435 108.88274 171.6252 109.39557 171.30491 C 109.65751 171.14132 110.20509 170.80438 110.61255 170.55612 C 111.68302 169.90391 113.13037 168.40743 113.92863 167.12687 C 114.63389 165.99548 114.91891 165.23177 115.1668 163.81028 C 115.34744 162.77415 115.37557 160.87502 115.21176 160.77377 C 115.17604 160.7517 115.12999 160.74815 115.06086 160.77119 z M 95.229514 160.78462 C 95.020612 160.76073 94.998535 161.197 95.03521 162.52302 C 95.074349 163.93814 95.10729 164.14802 95.458957 165.22156 C 96.043264 167.00529 96.903051 168.30288 98.283074 169.48383 C 99.211636 170.27845 99.67279 170.56265 100.91495 171.10699 C 101.68417 171.44412 102.41047 171.62599 102.41047 171.48113 C 102.41047 171.39062 101.19724 168.08887 100.81057 167.12687 C 100.5766 166.54478 100.18638 165.74955 99.942921 165.36005 C 99.334855 164.38724 98.011765 162.96701 96.816497 162.00419 C 96.267333 161.56181 95.677294 161.08552 95.505466 160.94585 C 95.389547 160.85162 95.299147 160.79258 95.229514 160.78462 z M 80.379257 165.64479 C 79.176258 165.64479 78.160237 165.67732 78.120997 165.71662 C 77.955393 165.88234 78.260736 166.32775 79.219638 167.31807 C 80.928616 169.08303 82.373401 169.9223 84.366094 170.3091 C 84.859282 170.4048 85.690249 170.44244 86.852764 170.42124 C 88.375589 170.3935 88.745112 170.35048 89.738893 170.08638 C 90.365664 169.91982 90.863141 169.73742 90.844251 169.68072 C 90.825363 169.62406 90.500535 169.38334 90.122332 169.14587 C 89.744127 168.90839 89.114514 168.47624 88.723451 168.1852 C 87.06578 166.95151 85.605283 166.29946 83.463823 165.83806 C 82.758462 165.68608 82.099136 165.64479 80.379257 165.64479 z M 129.99845 165.67941 C 126.70897 165.68293 124.11689 166.4433 121.98964 168.02914 C 121.49487 168.39798 120.77696 168.90199 120.39439 169.14949 C 119.57452 169.67987 119.36936 169.89283 119.52622 170.04969 C 119.58657 170.11004 120.27239 170.2477 121.05068 170.35561 C 122.84107 170.60389 125.72082 170.57895 126.69943 170.30652 C 127.75142 170.01366 129.17819 169.25337 130.03307 168.5304 C 130.81017 167.87319 132.25568 166.1918 132.25568 165.94503 C 132.25568 165.7425 131.70109 165.67741 129.99845 165.67941 z M 91.389438 171.51885 C 90.398219 171.51885 88.895691 171.75802 87.085308 172.20408 C 86.252547 172.40926 85.454516 172.57718 85.312289 172.57718 C 85.170063 172.57718 85.053907 172.6148 85.053907 172.6609 C 85.053907 172.8095 85.934887 173.59837 86.588181 174.03446 C 87.973229 174.95903 89.345929 175.51086 90.593104 175.64521 C 92.042944 175.80139 93.519645 175.61001 95.214011 175.04577 C 96.209807 174.71416 97.97241 173.87734 97.96113 173.74145 C 97.955086 173.66862 95.416504 172.42715 94.611463 172.10331 C 93.809465 171.7807 92.366326 171.51885 91.389438 171.51885 z M 118.72834 171.56122 C 118.11565 171.5897 117.51079 171.68298 116.88866 171.84183 C 115.89355 172.09591 115.37172 172.29601 113.74415 173.04899 C 113.06943 173.36114 112.42888 173.64496 112.32046 173.67996 C 112.15041 173.73486 112.14333 173.76811 112.26775 173.91974 C 112.65108 174.38691 115.23342 175.326 117.1212 175.685 C 117.72088 175.79904 120.57182 175.66359 121.19589 175.49122 C 122.33693 175.17607 123.72316 174.43012 124.47372 173.72802 C 124.85362 173.37264 125.16464 173.02279 125.16464 172.95029 C 125.16464 172.76982 122.01319 171.88228 120.61401 171.66871 C 119.96153 171.56911 119.34102 171.53275 118.72834 171.56122 z " /><path
       style="fill:#28220b;stroke-width:0.321087"
       d="m 186.55147,200.49942 c -3.44071,-0.37141 -7.40358,-1.15517 -7.78885,-1.54044 -0.35586,-0.35586 0.24019,-0.83062 7.05947,-5.62304 2.86591,-2.01409 6.47813,-4.31392 8.02718,-5.11075 7.06548,-3.63448 15.22418,-5.36622 25.28172,-5.36622 4.71507,0 6.91195,0.26279 7.1388,0.85395 0.43445,1.13216 -6.80248,8.95043 -10.66193,11.51843 -3.08154,2.05038 -7.28385,4.08457 -9.97739,4.82969 -2.26865,0.62759 -14.68358,0.91284 -19.079,0.43838 z"
       id="path1"
       transform="matrix(0.26458333,0,0,0.26458333,72.264507,117.33301)" /><path
       style="fill:#28220b;stroke-width:0.321087"
       d=""
       id="path2"
       transform="matrix(0.26458333,0,0,0.26458333,72.264507,117.33301)" /><path
       style="fill:#28220b;stroke-width:0.321087"
       d="m 223.69334,91.434722 c -0.28945,-0.479338 -1.17459,-6.41441 -1.68875,-11.323549 -0.95461,-9.114352 -0.0326,-14.350758 3.91651,-22.242001 1.51469,-3.026737 3.87013,-6.575978 4.63624,-6.985983 0.5149,-0.275569 0.69823,-0.142515 1.22068,0.885938 0.85855,1.690067 2.14455,5.91995 2.61813,8.611503 0.6276,3.566943 0.27008,11.981864 -0.61317,14.432225 -1.16547,3.23329 -3.78533,8.138791 -6.63545,12.424401 -2.72478,4.097139 -3.18042,4.650831 -3.45419,4.197466 z"
       id="path3"
       transform="matrix(0.26458333,0,0,0.26458333,72.264507,117.33301)" /><path
       style="fill:#28220b;stroke-width:0.321087"
       d="m 215.23451,66.684586 c -0.97767,-0.623095 -5.66799,-12.012936 -6.40757,-15.560002 -0.62766,-3.010277 -0.6073,-10.165457 0.0395,-13.878507 0.74534,-4.278804 2.09706,-9.761065 2.46238,-9.986845 0.84471,-0.52206 4.27315,4.173742 6.52957,8.943298 2.28634,4.83281 2.87496,7.373601 2.88245,12.44213 0.007,5.009127 -0.50461,7.355105 -2.94326,13.485649 -1.64054,4.1242 -2.06221,4.873466 -2.56305,4.554277 z"
       id="path4"
       transform="matrix(0.26458333,0,0,0.26458333,72.264507,117.33301)" /><path
       style="fill:#28220b;stroke-width:0.113521"
       d="m 225.61995,118.43115 c 0.0414,-0.39023 0.22254,-1.78229 0.40248,-3.09346 0.17994,-1.31117 0.4344,-3.48227 0.56546,-4.82466 0.13106,-1.34239 0.31317,-2.95155 0.40469,-3.57592 0.65194,-4.44794 1.88463,-8.299898 4.01786,-12.555233 2.2137,-4.41583 3.33893,-5.984005 8.01552,-11.170727 2.89714,-3.213173 5.93451,-6.300435 6.19861,-6.300435 0.93639,0 1.72952,5.025706 1.72883,10.95481 -3.6e-4,3.194549 -0.14127,4.657634 -0.68331,7.095085 -0.77917,3.503812 -2.5525,7.42144 -4.58291,10.12456 -1.8126,2.41315 -6.5887,7.58109 -8.65457,9.3646 -1.70176,1.46918 -4.55225,3.39537 -6.41964,4.33803 -1.02836,0.51911 -1.08387,0.49917 -0.99302,-0.35665 z"
       id="path5"
       transform="matrix(0.26458333,0,0,0.26458333,72.264507,117.33301)" /><path
       style="fill:#28220b;stroke-width:0.113521"
       d="m 218.58205,149.70628 c 0.14619,-0.53837 0.31482,-1.00036 1.4192,-3.88811 0.32236,-0.84289 0.98674,-2.70748 1.47642,-4.14352 1.31747,-3.86371 2.10928,-5.74761 3.43539,-8.17354 2.05899,-3.76664 5.92474,-8.70326 8.83329,-11.28028 1.92778,-1.70803 8.4231,-6.43039 11.90669,-8.65665 1.36083,-0.86966 1.41925,-0.89486 1.61668,-0.69743 0.35514,0.35514 0.46232,1.35767 0.3227,3.01849 -0.24252,2.88473 -0.90124,6.75193 -1.59165,9.3442 -1.72316,6.46993 -5.31246,11.98476 -10.28535,15.8031 -3.10032,2.38052 -7.56027,5.36397 -9.63765,6.44703 -1.64405,0.85715 -4.20584,1.85692 -6.34152,2.47486 -1.36669,0.39544 -1.33104,0.4031 -1.1542,-0.24815 z"
       id="path6"
       transform="matrix(0.26458333,0,0,0.26458333,72.264507,117.33301)" /><path
       style="fill:#28220b;stroke-width:0.113521"
       d="m 201.17391,45.606286 c -0.14835,-0.103218 -0.78431,-0.828494 -1.41325,-1.611725 -0.62894,-0.78323 -2.05927,-2.5167 -3.1785,-3.852154 -3.28127,-3.915159 -4.4809,-5.503048 -5.75574,-7.61854 -2.83082,-4.697507 -3.95794,-9.876259 -3.73078,-17.141724 0.0982,-3.140843 0.38563,-4.767897 0.84231,-4.767897 0.50228,0 2.39607,1.549191 4.91806,4.023183 1.94253,1.905552 3.00894,3.125963 4.18435,4.788633 2.91035,4.116818 4.52718,8.060017 5.26024,12.828881 0.18411,1.197718 0.25659,2.323858 0.30294,4.706688 0.0877,4.509123 -0.18387,7.779767 -0.71306,8.587415 -0.19739,0.301251 -0.34852,0.313324 -0.71657,0.05724 z"
       id="path7"
       transform="matrix(0.26458333,0,0,0.26458333,72.264507,117.33301)" /><path
       style="fill:#28220b;stroke-width:0.113521"
       d="m 180.83951,26.830721 c -2.2366,-1.60903 -7.00598,-5.624777 -8.80819,-7.41637 -1.53447,-1.525433 -2.30738,-2.556135 -3.10882,-4.145729 -1.49462,-2.964444 -1.88737,-4.598962 -2.10622,-8.7655382 -0.0813,-1.5480748 -0.008,-2.4495149 0.22382,-2.7670946 0.21239,-0.2904628 0.82435,-0.2267681 1.85084,0.1926416 4.09399,1.6727513 8.62162,6.1642702 11.08786,10.9994272 1.00619,1.972673 1.61587,3.977863 2.12375,6.984866 0.42938,2.542161 0.33613,5.621943 -0.16998,5.61399 -0.0705,-0.0011 -0.56235,-0.314394 -1.09306,-0.696193 z"
       id="path8"
       transform="matrix(0.26458333,0,0,0.26458333,72.264507,117.33301)" /><path
       style="fill:#28220b;stroke-width:0.113521"
       d="m 195.93785,58.861382 c -0.53915,-0.127802 -2.54133,-0.293417 -6.86804,-0.568105 -8.97803,-0.569984 -11.97205,-1.165465 -16.25429,-3.232819 -2.73983,-1.322717 -4.26058,-2.44393 -6.51288,-4.801796 -1.43929,-1.50674 -2.73849,-3.083919 -2.6836,-3.257777 0.18075,-0.572552 4.42709,-1.778636 8.25228,-2.34389 1.42552,-0.21065 5.02622,-0.179486 6.41396,0.05551 3.54006,0.599472 7.02298,1.975469 9.47903,3.744889 4.11076,2.96152 9.20173,8.637159 9.05985,10.100322 -0.0391,0.402674 -0.21472,0.46286 -0.88631,0.303663 z"
       id="path9"
       transform="matrix(0.26458333,0,0,0.26458333,72.264507,117.33301)" /><path
       style="fill:#28220b;stroke-width:0.113521"
       d="m 161.48412,39.710708 c -3.43212,-0.147089 -7.63073,-1.468579 -10.6881,-3.364029 -2.81703,-1.746439 -5.69547,-4.479773 -7.01446,-6.660846 -0.62555,-1.034397 -0.62268,-1.079589 0.0852,-1.344454 0.33654,-0.125917 1.42413,-0.409822 2.41685,-0.630902 5.75527,-1.281693 8.39114,-1.395746 11.95341,-0.517216 4.10165,1.011549 8.23319,2.958496 13.18019,6.211029 2.48239,1.632111 3.94606,2.732679 4.59677,3.456424 0.84447,0.939263 0.79363,1.720728 -0.12966,1.992922 -0.93314,0.275094 -4.92358,0.625137 -9.34853,0.820056 -2.43882,0.10743 -3.26708,0.113499 -5.0517,0.03702 z"
       id="path10"
       transform="matrix(0.26458333,0,0,0.26458333,72.264507,117.33301)" /><path
       style="fill:#28220b;stroke-width:0.113521"
       d="m 208.48196,83.368721 c -1.94155,-0.757913 -4.92376,-1.759094 -8.95278,-3.005615 -7.47215,-2.311772 -9.45952,-3.235188 -12.73938,-5.919251 -2.1586,-1.766483 -4.63721,-4.621888 -6.75535,-7.782285 -1.65217,-2.465151 -1.5847,-2.702483 0.83465,-2.936096 1.56119,-0.150749 5.87679,-0.05314 8.06002,0.182302 5.09338,0.549274 7.88563,1.502986 10.80832,3.691664 3.67095,2.749009 6.1628,5.845021 8.49931,10.56001 0.51051,1.030206 1.04818,2.230694 1.19482,2.667752 0.29973,0.893356 0.42858,2.090966 0.2827,2.627545 l -0.0971,0.357119 z"
       id="path11"
       transform="matrix(0.26458333,0,0,0.26458333,72.264507,117.33301)" /><path
       style="fill:#28220b;stroke-width:0.113521"
       d="m 212.73698,114.75909 c -1.85303,-1.87331 -3.83994,-3.6961 -7.77577,-7.1335 -3.96828,-3.46573 -7.53079,-6.94324 -9.02048,-8.805254 -2.66124,-3.326383 -4.5262,-6.980673 -6.37287,-12.487349 -0.36642,-1.092643 -0.66669,-2.08262 -0.66728,-2.199949 -9.6e-4,-0.194494 0.0616,-0.206347 0.70846,-0.134272 1.65423,0.184315 5.38122,1.110148 8.13656,2.021226 6.18693,2.045766 11.66427,6.892864 14.4673,12.802641 1.66566,3.511817 2.25754,6.832547 2.27587,12.768857 0.009,2.88499 -0.0106,3.23365 -0.21127,3.77458 -0.12159,0.3278 -0.25022,0.59599 -0.28583,0.59599 -0.0356,0 -0.60022,-0.54134 -1.25469,-1.20297 z"
       id="path12"
       transform="matrix(0.26458333,0,0,0.26458333,72.264507,117.33301)" /><path
       style="fill:#28220b;stroke-width:0.113521"
       d="m 200.73413,178.67013 c -0.078,-0.0348 -0.14188,-0.1228 -0.14185,-0.19565 2e-5,-0.0728 0.69485,-0.94979 1.54406,-1.94878 2.33867,-2.75115 5.1474,-6.12431 6.99494,-8.40058 3.14796,-3.87847 4.74919,-5.49712 7.46722,-7.54843 7.21365,-5.44419 15.76174,-9.31574 23.44054,-10.61657 2.07201,-0.35101 2.48117,-0.35714 2.79639,-0.0419 0.2247,0.22469 0.23698,0.32976 0.18904,1.61768 -0.0433,1.16332 -0.0987,1.49154 -0.3561,2.11204 -0.41076,0.98997 -1.28135,2.50937 -2.76631,4.82788 -5.08547,7.94008 -9.24869,11.86661 -15.71801,14.82441 -4.37811,2.00169 -10.1443,3.67324 -15.98589,4.63414 -3.12074,0.51333 -7.08587,0.90419 -7.46403,0.73577 z"
       id="path13"
       transform="matrix(0.26458333,0,0,0.26458333,72.264507,117.33301)" /><path
       style="fill:#28220b;stroke-width:0.113521"
       d="m 207.61182,144.71554 c -0.38693,-0.44843 -1.14477,-1.67204 -2.30522,-3.72202 -1.78862,-3.15968 -2.81452,-4.85168 -5.09351,-8.40058 -4.16371,-6.48387 -5.5541,-9.32702 -6.38427,-13.05496 -0.7496,-3.36614 -2.09126,-11.65921 -2.09126,-12.92651 v -0.55479 l 0.4339,0.0694 c 1.48969,0.23821 4.89969,2.18221 7.51043,4.2816 2.4857,1.99884 5.67548,5.34429 7.17059,7.52053 1.78796,2.60251 3.25056,6.84195 3.60723,10.45578 0.31519,3.19348 0.0532,6.29522 -0.95961,11.3608 -0.93768,4.68981 -1.30236,5.64981 -1.88828,4.97076 z"
       id="path14"
       transform="matrix(0.26458333,0,0,0.26458333,72.264507,117.33301)" /><path
       style="fill:#28220b;stroke-width:0.113521"
       d="m 191.01401,170.18776 c -0.30664,-0.23347 -0.41776,-0.75053 -0.69832,-3.24949 -0.33719,-3.00337 -0.82591,-5.77986 -1.87234,-10.63702 -1.36198,-6.32186 -1.74439,-8.95627 -1.92919,-13.29019 -0.11136,-2.61146 -0.0114,-8.28241 0.2296,-13.02911 0.14496,-2.85478 0.18833,-3.15997 0.43586,-3.06738 0.89057,0.3331 3.03979,2.02217 4.88467,3.83884 4.32134,4.25528 6.55909,8.52111 7.45598,14.21335 0.24747,1.57059 0.34331,5.90344 0.17118,7.7388 -0.47414,5.05576 -1.93636,9.33394 -4.55236,13.31942 -2.08062,3.16982 -3.52064,4.623 -4.12508,4.16278 z"
       id="path15"
       transform="matrix(0.26458333,0,0,0.26458333,72.264507,117.33301)" /><path
       style="fill:#28220b;stroke-width:0.113521"
       d="m 166.12226,191.79422 c -0.37188,-0.14845 -0.60813,-0.56862 -0.60813,-1.08152 0,-0.25493 0.12681,-1.27803 0.28181,-2.27355 0.15499,-0.99553 0.61577,-4.44091 1.02395,-7.6564 0.78724,-6.20163 0.91263,-7.0781 1.37231,-9.59255 0.66786,-3.65318 1.87545,-7.71512 3.21804,-10.82442 1.71924,-3.98155 5.77772,-12.34339 6.66159,-13.7251 l 0.41407,-0.64729 0.41291,0.4653 c 0.92679,1.04436 2.43444,4.22348 3.34304,7.04932 0.91673,2.85114 0.92493,2.92796 0.92421,8.65724 -5.4e-4,4.294 -0.0312,5.24751 -0.20418,6.35719 -0.40597,2.60377 -0.97669,4.41869 -2.29369,7.29397 -1.13868,2.48598 -2.36543,4.42944 -4.35303,6.8962 -1.12762,1.39947 -6.20463,6.50867 -7.6811,7.7298 -1.52322,1.2598 -2.04238,1.5392 -2.5118,1.35181 z"
       id="path16"
       transform="matrix(0.26458333,0,0,0.26458333,72.264507,117.33301)" /><path
       style="fill:#28220b;stroke-width:0.113521"
       d="m 136.02696,205.29983 c -0.15204,-0.0611 -0.25542,-0.19988 -0.25542,-0.34284 0,-0.38981 0.42359,-1.94095 1.19195,-4.36476 0.39585,-1.24874 1.10922,-3.54755 1.58525,-5.10846 1.96134,-6.43128 2.93955,-9.08255 4.50843,-12.21931 1.07894,-2.1572 2.5341,-4.44085 4.00559,-6.28619 1.05989,-1.32916 4.4854,-4.7934 6.19106,-6.26107 2.06419,-1.77616 6.02611,-4.90696 7.24306,-5.72363 1.40993,-0.94618 1.7625,-1.01109 1.95125,-0.35923 0.20309,0.70137 0.2678,4.02057 0.12338,6.32881 -0.20855,3.33332 -0.54537,5.53693 -1.30338,8.52727 -1.4348,5.66023 -5.1218,11.50689 -10.69853,16.96516 -2.71142,2.65382 -3.78536,3.47682 -7.70298,5.90308 -3.12377,1.93462 -4.26801,2.52913 -5.44912,2.83121 -0.98628,0.25224 -1.02828,0.25556 -1.39054,0.10996 z"
       id="path17"
       transform="matrix(0.26458333,0,0,0.26458333,72.264507,117.33301)" /><path
       style="fill:#28220b;stroke-width:0.113521"
       d="m 169.99822,220.54976 c -2.62703,-0.34687 -9.25419,-2.26106 -13.31372,-3.84553 -3.12534,-1.21985 -5.7011,-2.72443 -5.7011,-3.33019 0,-0.13727 0.24467,-0.29085 0.82303,-0.51662 0.45266,-0.1767 2.82111,-1.22949 5.26322,-2.33955 6.17904,-2.80866 7.90074,-3.47049 11.36716,-4.36957 5.51534,-1.4305 10.49802,-1.52726 16.48947,-0.32021 4.69884,0.94663 12.73409,3.21998 14.44429,4.08661 l 0.54989,0.27865 -0.25688,0.36466 c -0.44418,0.63053 -2.38192,2.57404 -3.3284,3.3383 -3.50442,2.8297 -9.29333,5.59147 -12.77116,6.09283 -2.59462,0.37405 -7.33729,0.64615 -10.84129,0.62201 -1.31117,-0.009 -2.5372,-0.0367 -2.72451,-0.0614 z"
       id="path18"
       transform="matrix(0.26458333,0,0,0.26458333,72.264507,117.33301)" /><path
       style="fill:#112b00;stroke-width:0.113521"
       d="m 69.75887,220.39545 c -4.865597,-0.49622 -10.203675,-2.57956 -15.268622,-5.95902 -2.176786,-1.45241 -4.860874,-3.69101 -5.707807,-4.76047 l -0.4479,-0.56559 0.324961,-0.1388 c 0.178728,-0.0763 0.514299,-0.14111 0.745713,-0.14393 0.5524,-0.007 2.95646,-0.51058 7.046388,-1.47684 4.865335,-1.14945 8.028853,-1.75282 11.717968,-2.23496 2.055606,-0.26865 6.085667,-0.26763 8.003255,0.002 2.783037,0.39135 5.591385,1.01465 7.387488,1.63961 1.815696,0.63178 8.380015,3.69368 11.770787,5.49044 1.420214,0.75257 1.709077,0.94671 1.601509,1.07632 -0.223544,0.26935 -2.242402,1.36232 -4.136678,2.23951 -5.376901,2.48991 -9.838359,3.87346 -14.913974,4.62502 -1.77017,0.26211 -6.419622,0.38041 -8.123088,0.20668 z"
       id="path19"
       transform="matrix(0.26458333,0,0,0.26458333,72.264507,117.33301)" /><path
       style="fill:#112b00;stroke-width:0.113521"
       d="m 169.48738,220.44285 c -3.27452,-0.6488 -9.28266,-2.43079 -12.65763,-3.75421 -2.98055,-1.16875 -5.73283,-2.74558 -5.73283,-3.28443 0,-0.0918 0.26819,-0.28738 0.59598,-0.43461 0.3278,-0.14723 1.59214,-0.71101 2.80966,-1.25285 1.21751,-0.54183 3.35326,-1.49284 4.7461,-2.11334 1.39284,-0.6205 3.15526,-1.37602 3.91648,-1.67893 3.6318,-1.44516 7.53677,-2.41734 11.01678,-2.74271 1.80744,-0.16899 5.85471,-0.0768 7.67928,0.17493 5.24853,0.72413 17.93638,4.21825 17.93638,4.93952 0,0.20137 -2.78076,2.9846 -3.68945,3.69273 -2.73275,2.12961 -6.43807,4.11027 -9.78079,5.22828 -2.69033,0.89981 -5.40364,1.18124 -11.95855,1.24038 -2.52868,0.0228 -4.72532,0.0162 -4.88141,-0.0148 z"
       id="path20"
       transform="matrix(0.26458333,0,0,0.26458333,72.264507,117.33301)" /><path
       style="fill:#112b00;stroke-width:0.113521"
       d="m 188.10488,200.58147 c -3.76211,-0.31255 -8.7257,-1.19852 -9.27675,-1.65585 -0.30598,-0.25394 0.68937,-1.07318 4.96294,-4.08485 8.17319,-5.75981 11.19752,-7.46061 16.29067,-9.16143 5.62265,-1.87764 11.59756,-2.73511 19.07123,-2.73696 4.47798,-0.001 6.49228,0.20048 6.93933,0.69446 0.19017,0.21014 0.1862,0.24534 -0.0916,0.81183 -1.175,2.39578 -7.37627,8.72713 -10.67122,10.89507 -2.42964,1.5986 -6.09303,3.43148 -8.55589,4.28071 -2.1948,0.7568 -4.17306,0.91291 -12.19797,0.96257 -3.27792,0.0203 -6.18975,0.0178 -6.47071,-0.006 z"
       id="path21"
       transform="matrix(0.26458333,0,0,0.26458333,72.264507,117.33301)" /><path
       style="fill:#112b00;stroke-width:0.113521"
       d="m 200.70575,178.48019 c 0,-0.0801 1.00305,-1.34446 2.22901,-2.80966 1.22596,-1.46519 3.64476,-4.37533 5.37511,-6.46696 3.4305,-4.14676 4.81136,-5.66119 6.39968,-7.0187 5.66981,-4.84591 13.85898,-9.20586 21.02162,-11.19203 3.45843,-0.959 6.7476,-1.4449 7.07887,-1.04575 0.25382,0.30583 0.17943,2.52989 -0.11372,3.4001 -0.29521,0.87629 -1.17541,2.47456 -2.57438,4.67453 -4.88072,7.67527 -8.77528,11.56851 -14.49923,14.49427 -5.57713,2.85073 -13.26978,4.98127 -21.22752,5.87916 -2.40494,0.27135 -3.68944,0.30096 -3.68944,0.085 z"
       id="path22"
       transform="matrix(0.26458333,0,0,0.26458333,72.264507,117.33301)" /><path
       style="fill:#112b00;stroke-width:0.113521"
       d="m 190.96521,170.08185 c -0.19966,-0.24058 -0.34695,-1.04742 -0.69915,-3.82983 -0.37603,-2.97078 -0.77466,-5.19732 -1.85966,-10.38721 -1.46121,-6.98934 -1.73581,-9.08514 -1.85187,-14.1334 -0.10145,-4.41315 0.25766,-14.41867 0.52718,-14.68819 0.46639,-0.46639 5.86111,4.37146 7.86549,7.05356 2.61703,3.50192 4.179,7.4998 4.61749,11.81856 0.17673,1.74063 0.14698,6.41655 -0.0503,7.89868 -0.64414,4.8404 -2.06925,8.64644 -4.71956,12.60452 -1.93141,2.88444 -3.34993,4.24135 -3.82966,3.66331 z"
       id="path23"
       transform="matrix(0.26458333,0,0,0.26458333,72.264507,117.33301)" /><path
       style="fill:#112b00;stroke-width:0.113521"
       d="m 165.93695,191.59545 c -0.40665,-0.44934 -0.4197,-0.72944 -0.1317,-2.82785 0.15285,-1.11374 0.63525,-4.758 1.07199,-8.09837 0.43674,-3.34037 0.92495,-6.8652 1.08492,-7.83297 0.77183,-4.66936 1.9375,-8.78206 3.57149,-12.60087 1.4644,-3.42247 5.37978,-11.51003 6.43998,-13.30234 l 0.51566,-0.87174 0.42093,0.50938 c 0.92589,1.12046 2.17416,3.75355 3.18759,6.7239 0.96791,2.83692 0.95537,2.71825 0.95537,9.04094 0,5.27706 -0.0129,5.62974 -0.25197,6.87181 -0.82444,4.28384 -2.81633,8.5904 -5.78856,12.51514 -2.12624,2.80763 -8.66875,9.2245 -10.0953,9.90145 -0.47128,0.22363 -0.75983,0.21525 -0.9804,-0.0285 z"
       id="path24"
       transform="matrix(0.26458333,0,0,0.26458333,72.264507,117.33301)" /><path
       style="fill:#112b00;stroke-width:0.113521"
       d="m 135.90042,205.1047 c -0.15269,-0.28578 0.16091,-1.435 2.06776,-7.57755 2.51753,-8.10974 3.31378,-10.38264 4.60884,-13.15607 1.14876,-2.4601 2.94249,-5.37629 4.51144,-7.33453 1.07622,-1.34327 5.15126,-5.40522 6.78973,-6.76793 3.54607,-2.94924 6.64747,-5.31925 7.57753,-5.79055 0.5087,-0.25778 0.58726,-0.27008 0.74127,-0.11607 0.27294,0.27294 0.35157,1.08999 0.35882,3.72856 0.0205,7.44772 -1.36918,13.43453 -4.30561,18.54938 -1.98264,3.45347 -4.50596,6.61295 -8.01603,10.03697 -2.59169,2.52816 -4.1778,3.70535 -8.446,6.2685 -2.37939,1.42888 -2.90439,1.6999 -4.01516,2.07277 -1.01734,0.34151 -1.71903,0.37393 -1.87259,0.0865 z"
       id="path25"
       transform="matrix(0.26458333,0,0,0.26458333,72.264507,117.33301)" /><path
       style="fill:#112b00;stroke-width:0.113521"
       d="m 68.737178,220.22994 c -6.106864,-0.98872 -12.477519,-4.05535 -17.840363,-8.58779 -0.998313,-0.84373 -2.423198,-2.30145 -2.423198,-2.47903 0,-0.12978 0.169594,-0.17146 1.602341,-0.39375 0.600323,-0.0931 3.129011,-0.63337 5.619307,-1.20051 9.041055,-2.05902 12.487479,-2.603 16.504314,-2.605 3.049028,-0.002 5.83225,0.37163 9.221443,1.23632 2.582064,0.65876 5.104017,1.73025 11.269161,4.78788 1.997975,0.99091 3.760394,1.90274 3.916486,2.02631 0.251382,0.19899 0.264351,0.2435 0.113522,0.38966 -0.483424,0.46845 -4.165985,2.28437 -6.924803,3.41471 -4.010046,1.64301 -7.816076,2.708 -11.813828,3.3057 -1.731208,0.25883 -7.864953,0.32883 -9.244382,0.1055 z"
       id="path26"
       transform="matrix(0.26458333,0,0,0.26458333,72.264507,117.33301)" /><path
       style="fill:#112b00;stroke-width:0.113521"
       d="m 190.83885,169.68604 c -0.062,-0.23414 -0.21821,-1.19198 -0.34704,-2.12853 -0.54829,-3.98605 -0.87695,-5.87716 -1.99262,-11.46565 -1.72276,-8.62939 -1.86889,-9.93433 -1.86963,-16.69589 -6.2e-4,-5.69508 0.26303,-12.04254 0.51048,-12.29 0.36455,-0.36454 4.91914,3.60703 7.07357,6.1681 2.4263,2.88425 4.16651,6.53162 4.95587,10.3872 0.58618,2.86313 0.61608,8.61108 0.0608,11.6927 -0.73578,4.08346 -2.0731,7.4132 -4.35418,10.84129 -1.65166,2.48216 -2.96329,3.91648 -3.58148,3.91648 -0.3006,0 -0.35693,-0.0526 -0.4558,-0.4257 z"
       id="path27"
       transform="matrix(0.26458333,0,0,0.26458333,72.264507,117.33301)" /><path
       style="fill:#112b00;stroke-width:0.113521"
       d="m 218.59901,149.8198 c 0.0411,-0.1717 0.52219,-1.51267 1.0691,-2.97993 0.5469,-1.46727 1.41269,-3.86824 1.92397,-5.33551 1.51475,-4.34697 2.46277,-6.4943 3.99151,-9.04105 2.43796,-4.06143 6.04106,-8.4219 8.89476,-10.76444 2.93582,-2.40996 9.89594,-7.37848 11.99779,-8.56469 l 0.64565,-0.36438 0.19986,0.30503 c 0.73782,1.12604 -0.36672,9.17283 -1.899,13.83457 -2.02481,6.16021 -5.33334,10.76152 -10.55168,14.67466 -3.84741,2.8851 -7.98344,5.52776 -10.1302,6.47254 -2.10403,0.92598 -5.43093,2.07539 -6.00713,2.07539 -0.17084,0 -0.19561,-0.0574 -0.13463,-0.31219 z"
       id="path28"
       transform="matrix(0.26458333,0,0,0.26458333,72.264507,117.33301)" /><path
       style="fill:#112b00;stroke-width:0.113521"
       d="m 207.53594,144.49973 c -0.33275,-0.40369 -1.31054,-2.02156 -3.4226,-5.66312 -0.5794,-0.99899 -1.56655,-2.63369 -2.19366,-3.63268 -0.62711,-0.99899 -1.82702,-2.90969 -2.66645,-4.246 -2.77287,-4.41415 -4.21597,-7.27518 -4.96053,-9.83454 -0.68012,-2.33783 -2.15967,-10.78832 -2.49852,-14.27037 l -0.0745,-0.76521 0.37786,0.0707 c 1.14169,0.2135 3.79442,1.57329 5.73721,2.94089 3.15256,2.21921 7.16643,6.20495 9.01581,8.95265 1.21098,1.7992 2.22655,4.19965 2.93725,6.94266 1.00421,3.8758 0.95388,7.89132 -0.17362,13.85224 -0.70519,3.72822 -1.25687,5.76762 -1.62112,5.99274 -0.0645,0.0399 -0.27021,-0.11311 -0.45717,-0.33992 z"
       id="path29"
       transform="matrix(0.26458333,0,0,0.26458333,72.264507,117.33301)" /><path
       style="fill:#112b00;stroke-width:0.113521"
       d="m 212.33595,114.27568 c -1.77062,-1.71949 -3.78911,-3.56108 -7.40393,-6.75508 -3.21618,-2.84176 -6.25038,-5.72131 -7.65813,-7.2678 -3.39557,-3.730238 -5.54105,-7.650937 -7.64825,-13.976574 l -0.71851,-2.156905 0.45264,-0.03502 c 0.5565,-0.04306 2.31883,0.299313 4.64822,0.903015 6.27499,1.626278 9.92584,3.61832 13.6234,7.43345 3.18299,3.284197 5.23283,6.999499 6.11933,11.091184 0.42082,1.94235 0.5897,3.85627 0.65785,7.45569 0.0571,3.01727 0.0414,3.54611 -0.12236,4.10937 -0.10336,0.35555 -0.22557,0.66922 -0.27158,0.69705 -0.046,0.0278 -0.80141,-0.64644 -1.67868,-1.49838 z"
       id="path30"
       transform="matrix(0.26458333,0,0,0.26458333,72.264507,117.33301)" /><path
       style="fill:#112b00;stroke-width:0.113521"
       d="m 225.68044,118.69421 c 0,-0.18312 0.15248,-1.52409 0.33884,-2.97994 0.18636,-1.45585 0.49276,-4.05183 0.68089,-5.76884 0.48391,-4.4166 0.90473,-6.54241 1.89879,-9.59206 1.1581,-3.552893 3.31142,-7.983825 5.28266,-10.870257 2.01264,-2.947054 10.80554,-12.550954 11.39161,-12.442293 0.9538,0.176843 1.75417,6.220526 1.59889,12.07344 -0.0722,2.720903 -0.24452,4.122741 -0.77454,6.300435 -0.85892,3.529039 -2.6545,7.310385 -4.74905,10.001155 -2.53714,3.25934 -7.60765,8.51201 -9.76497,10.11581 -2.23619,1.66242 -5.23255,3.49548 -5.71378,3.49548 -0.13373,0 -0.18934,-0.0978 -0.18934,-0.33293 z"
       id="path31"
       transform="matrix(0.26458333,0,0,0.26458333,72.264507,117.33301)" /><path
       style="fill:#112b00;stroke-width:0.113521"
       d="m 223.78575,91.427062 c -0.40179,-0.48413 -1.63998,-9.434579 -1.97675,-14.289304 -0.22185,-3.198068 -0.0242,-6.702767 0.53462,-9.479033 0.8497,-4.221561 3.45421,-10.09679 6.42856,-14.50153 1.00853,-1.493529 1.7842,-2.356391 2.11828,-2.356391 0.63546,0 1.82595,2.949941 2.90914,7.208606 0.66198,2.602628 0.73764,3.194304 0.81288,6.357196 0.089,3.743107 -0.20883,7.884237 -0.70727,9.832788 -0.49452,1.93319 -3.08669,7.112175 -5.47536,10.939405 -1.34478,2.154665 -3.53356,5.360915 -4.04628,5.927238 -0.38184,0.421755 -0.49214,0.488365 -0.59782,0.361025 z"
       id="path32"
       transform="matrix(0.26458333,0,0,0.26458333,72.264507,117.33301)" /><path
       style="fill:#112b00;stroke-width:0.113521"
       d="m 208.93605,83.503488 c -0.99174,-0.440196 -4.54207,-1.650311 -8.96819,-3.05677 -7.89319,-2.508168 -9.53405,-3.236207 -12.51924,-5.554723 -2.48634,-1.931074 -5.28795,-5.09473 -7.5001,-8.46934 -0.82384,-1.256754 -1.07225,-1.838325 -0.91261,-2.136606 0.22616,-0.422592 0.89844,-0.487354 4.9822,-0.479937 3.37167,0.0061 4.17657,0.04197 5.78613,0.257713 5.43131,0.727993 8.12604,1.899617 11.77195,5.118267 2.61828,2.311443 4.80753,5.316193 6.6897,9.18163 1.20475,2.474191 1.32631,2.85125 1.33972,4.155565 0.007,0.663573 -0.035,1.137036 -0.10196,1.155116 -0.0624,0.01685 -0.31786,-0.06006 -0.5676,-0.170915 z"
       id="path33"
       transform="matrix(0.26458333,0,0,0.26458333,72.264507,117.33301)" /><path
       style="fill:#112b00;stroke-width:0.113521"
       d="m 195.37024,58.738498 c -0.3434,-0.0517 -2.48895,-0.224159 -4.76789,-0.383244 -7.00382,-0.488913 -9.3198,-0.736564 -11.83348,-1.265374 -3.52116,-0.740751 -7.66274,-2.667881 -10.11916,-4.708562 -1.60059,-1.329697 -4.95192,-4.937472 -4.95192,-5.330836 0,-0.431904 3.06381,-1.389778 6.75452,-2.111738 1.4639,-0.286363 1.80874,-0.311125 4.37057,-0.313834 2.4426,-0.0026 2.93834,0.02838 4.07118,0.254317 2.99844,0.598013 5.86448,1.708359 8.13236,3.150605 2.45414,1.560685 6.33338,5.249192 8.34658,7.936194 0.935,1.247934 1.3595,2.03634 1.3595,2.524946 0,0.344489 -0.0253,0.368878 -0.36894,0.355685 -0.20292,-0.0078 -0.64991,-0.05646 -0.99332,-0.108159 z"
       id="path34"
       transform="matrix(0.26458333,0,0,0.26458333,72.264507,117.33301)" /><path
       style="fill:#112b00;stroke-width:0.113521"
       d="m 215.03443,66.38161 c -1.47901,-2.122753 -5.50411,-12.159013 -6.15249,-15.340762 -0.34201,-1.678329 -0.49653,-4.56606 -0.41982,-7.845974 0.0793,-3.391234 0.25538,-5.020865 0.87649,-8.112518 0.92004,-4.579648 1.78939,-7.780471 2.11319,-7.780471 0.61022,0 1.79362,1.28992 3.38476,3.689444 1.32553,1.998965 2.44127,4.036257 3.46906,6.334346 1.96761,4.399449 2.4788,7.114177 2.34502,12.453437 -0.10931,4.362603 -0.57366,6.37651 -2.74831,11.919742 -1.47289,3.754406 -2.0922,4.994939 -2.49361,4.994939 -0.0862,0 -0.25466,-0.140482 -0.37429,-0.312183 z"
       id="path35"
       transform="matrix(0.26458333,0,0,0.26458333,72.264507,117.33301)" /><path
       style="fill:#112b00;stroke-width:0.113521"
       d="m 200.97318,45.327815 c -0.58011,-0.613092 -7.01886,-8.444346 -7.85929,-9.559008 -4.12249,-5.467659 -5.68563,-9.982722 -5.97717,-17.264827 -0.12498,-3.121569 0.23044,-7.314188 0.65612,-7.739868 0.11654,-0.116546 0.24641,-0.0849 0.67776,0.165166 1.53756,0.891361 6.24775,5.486476 7.93893,7.744984 3.59139,4.796151 5.55625,9.769795 6.01237,15.219069 0.17515,2.092569 0.0639,9.048226 -0.16359,10.2274 -0.30466,1.579197 -0.63736,1.891691 -1.28513,1.207084 z"
       id="path36"
       transform="matrix(0.26458333,0,0,0.26458333,72.264507,117.33301)" /><path
       style="fill:#112b00;stroke-width:0.113521"
       d="m 180.87982,26.778744 c -2.35705,-1.682865 -6.87522,-5.507464 -8.89826,-7.532316 -3.57106,-3.574263 -5.10312,-7.65333 -5.10479,-13.5913506 -4.2e-4,-1.504431 0.0887,-1.9065516 0.44786,-2.0205418 0.58164,-0.1846025 2.66926,0.7461638 4.51913,2.0148475 2.74722,1.8841129 5.37761,4.7318649 7.25975,7.8596579 1.19453,1.985093 1.81005,3.444688 2.34576,5.562546 0.60197,2.379813 0.79047,3.743719 0.80014,5.789589 0.009,2.010709 -0.059,2.55423 -0.32168,2.55423 -0.0859,0 -0.55746,-0.286498 -1.04791,-0.636662 z"
       id="path37"
       transform="matrix(0.26458333,0,0,0.26458333,72.264507,117.33301)" /><path
       style="fill:#112b00;stroke-width:0.113521"
       d="m 160.17863,39.559673 c -3.6429,-0.507075 -7.15931,-1.804745 -9.98988,-3.686591 -2.69456,-1.791417 -5.46875,-4.576542 -6.58918,-6.615145 -0.2313,-0.420838 -0.24477,-0.505029 -0.10234,-0.639372 0.23254,-0.219322 1.03751,-0.457835 3.05883,-0.906325 6.24769,-1.386237 9.35112,-1.341281 13.93148,0.201811 3.55936,1.199127 6.6685,2.784394 10.94622,5.581192 3.17657,2.076852 4.86478,3.474488 5.03996,4.172492 0.21707,0.86487 -0.19354,1.126696 -2.16169,1.378401 -3.55387,0.454506 -12.27974,0.771559 -14.1334,0.513537 z"
       id="path38"
       transform="matrix(0.26458333,0,0,0.26458333,72.264507,117.33301)" /><path
       style="fill:#112b00;stroke-width:0.113521"
       d="m 111.97772,204.50535 c -1.66628,-0.44801 -4.01609,-1.41405 -6.6705,-2.74234 -2.50839,-1.25522 -3.93086,-2.20795 -6.458101,-4.32543 -5.520637,-4.62553 -8.842527,-9.56482 -11.16013,-16.59391 -1.188575,-3.60484 -1.359409,-4.63229 -1.538039,-9.25019 -0.140266,-3.62616 -0.08762,-6.04105 0.147392,-6.76079 0.284524,-0.87138 0.398552,-0.81288 3.896696,1.99904 4.024866,3.23532 5.431439,4.48097 7.951916,7.04213 3.016726,3.06541 5.218096,5.73498 6.548086,7.94076 0.72146,1.19654 2.00102,3.77534 2.79938,5.64181 1.03583,2.42165 6.36749,16.79222 6.36749,17.16246 0,0.1843 -1.00071,0.12399 -1.88419,-0.11354 z"
       id="path39"
       transform="matrix(0.26458333,0,0,0.26458333,72.264507,117.33301)" /><path
       style="fill:#112b00;stroke-width:0.113521"
       d="m 68.702949,220.23149 c -5.676935,-0.8704 -11.776113,-3.72733 -17.107495,-8.01337 -1.305845,-1.04981 -3.121837,-2.82176 -3.121837,-3.04614 0,-0.14109 0.233399,-0.20785 1.202765,-0.34402 0.985758,-0.13848 2.885613,-0.54289 7.481618,-1.59258 6.977609,-1.59363 10.44351,-2.14446 14.076647,-2.23717 3.344351,-0.0853 5.734556,0.15166 8.968187,0.88924 2.571709,0.5866 3.793758,1.01345 6.924803,2.41877 2.313491,1.03838 9.127364,4.42809 9.479032,4.71556 l 0.283804,0.23199 -0.340564,0.28299 c -0.187311,0.15564 -1.260087,0.73877 -2.383949,1.29585 -5.683959,2.81744 -10.583432,4.42596 -16.120032,5.29229 -1.6395,0.25654 -7.899204,0.32795 -9.342979,0.10659 z"
       id="path40"
       transform="matrix(0.26458333,0,0,0.26458333,72.264507,117.33301)" /><path
       style="fill:#112b00;stroke-width:0.113521"
       d="m 49.211505,200.5345 c -6.393681,-0.36504 -12.610302,-2.82231 -17.88049,-7.06768 -3.645331,-2.93648 -8.556121,-8.14651 -9.158297,-9.71636 -0.281032,-0.73264 -0.15778,-0.85004 0.99751,-0.95016 1.621703,-0.14055 13.171756,-0.12913 14.972946,0.0148 3.135179,0.25052 6.722758,1.03796 10.596466,2.32582 4.905218,1.6308 8.214806,3.38148 13.371493,7.07314 1.396602,0.99982 3.560968,2.49436 4.809703,3.3212 1.248735,0.82683 2.490525,1.68298 2.759533,1.90255 0.46034,0.37575 0.476497,0.40806 0.274704,0.5494 -0.370235,0.25932 -2.788562,1.04475 -4.651036,1.51058 -2.221916,0.55572 -3.529028,0.77662 -5.421525,0.91623 -2.158479,0.15923 -8.69895,0.23308 -10.671007,0.12048 z"
       id="path41"
       transform="matrix(0.26458333,0,0,0.26458333,72.264507,117.33301)" /><path
       style="fill:#112b00;stroke-width:0.113521"
       d="m 82.443968,191.33772 c -0.343202,-0.13973 -1.960912,-1.20967 -3.119467,-2.0632 -5.131908,-3.78078 -10.934669,-10.69295 -12.676099,-15.09961 -1.932243,-4.8895 -2.44929,-13.57465 -1.140729,-19.16151 0.607959,-2.59566 2.21264,-6.55631 3.291838,-8.12487 0.434736,-0.63187 0.540541,-0.68956 0.791129,-0.43138 0.896294,0.92344 6.241967,11.72108 7.998781,16.15661 1.742553,4.39953 2.838441,9.43738 3.977003,18.28251 0.488852,3.79772 0.999891,7.13992 1.312004,8.5805 0.360465,1.66375 0.249426,2.13937 -0.43446,1.86095 z"
       id="path42"
       transform="matrix(0.26458333,0,0,0.26458333,72.264507,117.33301)" /><path
       style="fill:#112b00;stroke-width:0.113521"
       d="m 55.964098,168.07259 c -2.242377,-2.28549 -3.996455,-4.8073 -5.648687,-8.12101 -1.706146,-3.42184 -2.29588,-6.06712 -2.29588,-10.29828 0,-3.08942 0.422073,-5.94509 1.262351,-8.54081 1.525468,-4.71237 6.897113,-11.49917 10.872079,-13.73631 0.399045,-0.22459 0.751668,-0.3822 0.78361,-0.35026 0.110819,0.11082 0.372981,8.88068 0.386999,12.94591 0.01967,5.70432 -0.247744,8.38253 -1.388516,13.90636 -1.760419,8.52428 -1.882791,9.18475 -2.270547,12.25472 -0.278902,2.20815 -0.427415,2.95714 -0.586351,2.95714 -0.06423,0 -0.566011,-0.45786 -1.115058,-1.01746 z"
       id="path43"
       transform="matrix(0.26458333,0,0,0.26458333,72.264507,117.33301)" /><path
       style="fill:#112b00;stroke-width:0.113521"
       d="m 45.35178,177.69802 c -7.247742,-0.64408 -12.021487,-1.72515 -18.106656,-4.10048 -4.346421,-1.69661 -7.541639,-3.72975 -10.830325,-6.89144 -4.69779,-4.51637 -8.9696066,-10.96433 -11.4087089,-17.22053 -0.2257167,-0.57895 -0.2259331,-0.59091 -0.011924,-0.65883 0.7304453,-0.23184 7.3779579,1.19885 10.1609339,2.18685 4.241663,1.50585 10.884906,4.84131 14.24693,7.15315 2.242921,1.54231 5.136289,4.01062 7.096425,6.05391 3.572278,3.72383 10.95347,12.78563 10.95347,13.44744 0,0.18572 -0.299053,0.18998 -2.100145,0.0299 z"
       id="path44"
       transform="matrix(0.26458333,0,0,0.26458333,72.264507,117.33301)" /><path
       style="fill:#112b00;stroke-width:0.113521"
       d="m 26.847799,149.80688 c -4.000567,-1.38007 -6.079026,-2.47603 -9.952133,-5.2477 -3.956586,-2.8314 -6.732073,-5.0979 -7.9945105,-6.52842 -5.0062847,-5.67281 -7.2913854,-11.27011 -8.4989434,-20.81798 -0.48068606,-3.80066 -0.38553301,-5.9051 0.26700216,-5.9051 0.25091783,0 2.47214354,1.53483 5.80150274,4.00875 5.338597,3.96689 7.729496,6.0494 9.864476,8.59212 4.707652,5.60672 7.221335,10.23507 9.494725,17.48229 0.421097,1.34239 1.044576,3.20698 1.38551,4.14353 0.926916,2.54625 1.505474,4.27837 1.505474,4.50716 0,0.31107 -0.457166,0.2538 -1.873103,-0.23465 z"
       id="path45"
       transform="matrix(0.26458333,0,0,0.26458333,72.264507,117.33301)" /><path
       style="fill:#112b00;stroke-width:0.113521"
       d="m 39.801333,142.84651 c -1.243361,-3.44125 -1.570312,-5.71064 -1.73073,-12.01315 -0.08523,-3.34858 0.01053,-4.46384 0.583049,-6.79039 1.103547,-4.48447 2.719954,-7.3129 6.15483,-10.76988 3.008989,-3.02836 7.524008,-5.97033 10.24447,-6.67527 0.991231,-0.25686 0.9501,-0.2906 0.863252,0.70824 -0.603145,6.93679 -1.748291,12.14588 -3.770577,17.15176 -1.474002,3.64867 -2.707293,5.83206 -5.537217,9.80293 -0.52024,0.72999 -2.072267,3.20759 -3.448949,5.50579 -1.376681,2.29819 -2.572495,4.27165 -2.657364,4.38547 -0.138117,0.18522 -0.211639,0.0482 -0.700764,-1.3055 z"
       id="path46"
       transform="matrix(0.26458333,0,0,0.26458333,72.264507,117.33301)" /><path
       style="fill:#112b00;stroke-width:0.113521"
       d="m 22.859108,120.85126 c -2.387113,-1.60042 -8.082297,-6.95371 -10.575186,-9.94033 -2.113448,-2.53203 -4.1178631,-6.0573 -5.7753791,-10.15746 -1.5459558,-3.824198 -1.9057632,-6.138432 -1.8978638,-12.206817 0.00608,-4.672085 0.3615355,-8.386017 0.9542214,-9.970112 0.2994964,-0.800476 0.476717,-0.956925 0.8547803,-0.754592 0.8197609,0.438723 5.5051122,5.593686 7.5502152,8.306972 2.746434,3.643757 5.726221,9.891476 6.865186,14.394239 0.770654,3.04668 2.593123,14.9274 2.954935,19.26329 0.07818,0.93686 0.01479,1.51111 -0.166803,1.51111 -0.05413,0 -0.39798,-0.20083 -0.764106,-0.4463 z"
       id="path47"
       transform="matrix(0.26458333,0,0,0.26458333,72.264507,117.33301)" /><path
       style="fill:#112b00;stroke-width:0.113521"
       d="m 34.457673,116.0472 c -0.758245,-2.35481 0.141984,-11.76724 1.549905,-16.205172 0.408692,-1.288248 1.443874,-3.495749 2.155997,-4.597615 2.286584,-3.538023 5.952893,-6.382358 10.531819,-8.170618 3.633325,-1.418965 8.998453,-2.866151 9.397586,-2.5349 0.820159,0.680671 -1.533868,7.12823 -4.251594,11.644897 -2.625185,4.362878 -5.447574,7.353388 -12.50552,13.250458 -3.068065,2.56344 -4.816028,4.24203 -5.881435,5.64802 -0.461293,0.60876 -0.863994,1.10683 -0.894891,1.10683 -0.0309,0 -0.07674,-0.0639 -0.101867,-0.1419 z"
       id="path48"
       transform="matrix(0.26458333,0,0,0.26458333,72.264507,117.33301)" /><path
       style="fill:#112b00;stroke-width:0.113521"
       d="m 37.691057,84.121692 c -0.191067,-0.230221 -0.044,-0.620731 0.813197,-2.159277 1.358472,-2.438267 4.63426,-7.445656 6.535288,-9.989879 4.221638,-5.649991 9.821701,-7.762246 20.726046,-7.817534 2.801923,-0.01421 3.056936,7.4e-4 3.194019,0.187197 0.635722,0.864703 -2.549695,5.76584 -5.956548,9.164847 -2.669992,2.663842 -5.500785,4.426395 -9.931828,6.183911 -2.737551,1.085816 -10.763466,3.653567 -13.50904,4.321982 -1.314567,0.320033 -1.678245,0.341171 -1.871134,0.108753 z"
       id="path49"
       transform="matrix(0.26458333,0,0,0.26458333,72.264507,117.33301)" /><path
       style="fill:#112b00;stroke-width:0.113521"
       d="M 25.021779,91.891635 C 23.9542,91.215691 20.406964,85.810489 18.379451,81.770196 16.85087,78.724145 15.760433,75.340824 15.276568,72.142818 c -1.003712,-6.633814 -0.113044,-14.837003 2.06053,-18.977799 0.578592,-1.102255 1.417681,-2.137172 1.732772,-2.137172 0.345626,0 1.127548,0.998541 2.454994,3.135111 2.326001,3.743778 3.590284,6.320161 4.58933,9.352238 1.580416,4.796514 2.025676,9.67909 1.417385,15.542552 -0.620388,5.980067 -1.667338,12.637015 -2.035499,12.942562 -0.0868,0.07204 -0.246772,0.03539 -0.474301,-0.108675 z"
       id="path50"
       transform="matrix(0.26458333,0,0,0.26458333,72.264507,117.33301)" /><path
       style="fill:#112b00;stroke-width:0.113521"
       d="m 33.280526,66.956201 c -0.421808,-0.346035 -2.97365,-7.413561 -3.640269,-10.082004 -1.304727,-5.222764 -1.19836,-11.95825 0.26581,-16.831913 1.07152,-3.566683 2.755057,-6.673428 5.096808,-9.405491 1.494918,-1.744082 3.104829,-3.219058 3.515626,-3.220962 0.391953,-0.0018 1.56451,4.615329 2.33917,9.21089 0.94697,5.617766 0.718878,9.519962 -0.905566,15.492398 -0.887121,3.261594 -3.644385,11.179536 -4.698668,13.493007 -0.545766,1.197603 -1.422981,1.795219 -1.972911,1.344075 z"
       id="path51"
       transform="matrix(0.26458333,0,0,0.26458333,72.264507,117.33301)" /><path
       style="fill:#112b00;stroke-width:0.113521"
       d="m 51.453552,58.866349 c -0.140483,-0.06145 -0.255423,-0.154526 -0.255423,-0.206826 0,-0.3679 5.439724,-5.973961 8.173537,-8.423469 2.936822,-2.631404 6.061852,-4.231152 9.479033,-4.852452 1.372305,-0.249508 4.995314,-0.241457 7.151845,0.01589 1.834595,0.218931 6.604065,0.924269 7.605931,1.12481 0.627353,0.125576 0.678737,0.158614 0.650847,0.418458 -0.07726,0.719833 -2.29848,3.352528 -4.452286,5.277058 -1.768172,1.579949 -3.231914,2.653957 -4.703931,3.45147 -3.682799,1.995274 -6.737743,2.673564 -13.858336,3.076971 -3.121262,0.176831 -9.481575,0.253539 -9.791217,0.118087 z"
       id="path52"
       transform="matrix(0.26458333,0,0,0.26458333,72.264507,117.33301)" /><path
       style="fill:#112b00;stroke-width:0.113521"
       d="m 80.032552,40.058788 c -2.291423,-0.27794 -3.567513,-0.393924 -5.449025,-0.495265 -2.611902,-0.140679 -3.006769,-0.191617 -3.189174,-0.411401 -0.107833,-0.129931 -0.103704,-0.227807 0.01931,-0.457652 0.412577,-0.770909 5.532667,-4.717754 9.42316,-7.263887 3.746123,-2.451651 6.817986,-3.741083 10.280556,-4.315323 1.799605,-0.29845 4.957597,-0.272853 7.475918,0.0606 3.171373,0.419921 5.677363,0.927641 6.179253,1.251935 0.35426,0.228902 -0.82854,1.973557 -2.85758,4.215013 -3.248353,3.588412 -7.075094,5.909113 -11.244368,6.81907 -2.209583,0.482248 -3.227408,0.573834 -6.77832,0.609919 -1.904321,0.01935 -3.641197,0.0135 -3.859726,-0.01301 z"
       id="path53"
       transform="matrix(0.26458333,0,0,0.26458333,72.264507,117.33301)" /><path
       style="fill:#112b00;stroke-width:0.113521"
       d="m 67.699173,26.902987 c -0.148359,-0.386619 0.05404,-4.532092 0.288138,-5.901537 0.60158,-3.519175 1.839964,-6.881003 3.417783,-9.27822 1.417501,-2.1536419 5.115355,-5.3571638 8.573978,-7.4278015 1.816623,-1.0875915 2.775636,-1.4122644 2.936129,-0.9940247 0.110725,0.2885455 0.07746,3.8700877 -0.04631,4.9856548 -0.287527,2.5916044 -0.861255,4.7223114 -1.782362,6.6193354 -0.999685,2.058854 -2.399714,3.700816 -4.800182,5.629682 -2.517114,2.022594 -7.931853,6.205507 -8.373002,6.468185 -0.08593,0.05117 -0.171137,0.01088 -0.214173,-0.101274 z"
       id="path54"
       transform="matrix(0.26458333,0,0,0.26458333,72.264507,117.33301)" /><path
       style="fill:#112b00;stroke-width:0.113521"
       d="m 47.891638,44.948404 c -0.328405,-0.742414 -0.433943,-2.483319 -0.436637,-7.202555 -0.0023,-4.045047 0.08972,-5.786526 0.403601,-7.63736 0.692903,-4.085783 3.037681,-9.225552 5.578849,-12.228876 3.319545,-3.923264 7.851393,-7.777545 8.445849,-7.18309 0.06443,0.06443 0.166232,0.493725 0.226223,0.953986 0.151551,1.162718 0.146725,7.34728 -0.0071,9.067137 -0.475222,5.31409 -1.82015,9.186194 -4.707234,13.552314 -1.08968,1.647917 -2.290002,3.234979 -4.603614,6.08688 -1.038365,1.279953 -2.305629,2.84603 -2.816143,3.480172 -0.957292,1.189112 -1.414141,1.628289 -1.693814,1.628289 -0.08875,0 -0.264248,-0.232604 -0.390004,-0.516897 z"
       id="path55"
       transform="matrix(0.26458333,0,0,0.26458333,72.264507,117.33301)" /><path
       style="fill:#225500;stroke-width:0.227043"
       d="m 185.49389,200.25491 c -3.09823,-0.46597 -6.01166,-1.03843 -6.35043,-1.2478 -0.16059,-0.0993 -0.22178,-0.29405 -0.13598,-0.43288 0.39712,-0.64255 8.35844,-6.2731 12.38952,-8.76233 5.0262,-3.10374 10.52154,-5.03344 17.48228,-6.13897 2.58788,-0.41101 13.33654,-0.73615 15.48055,-0.46828 1.85536,0.23182 1.98913,0.38202 1.37591,1.54488 -1.2622,2.39352 -7.45389,8.56266 -10.81903,10.77963 -1.7237,1.13558 -6.41135,3.45331 -8.12488,4.01721 -2.02908,0.66774 -3.96335,0.82333 -11.53511,0.9279 -5.87526,0.0811 -8.09671,0.0312 -9.76283,-0.21936 z"
       id="path56"
       transform="matrix(0.26458333,0,0,0.26458333,72.264507,117.33301)" /><path
       style="fill:#225500;stroke-width:0.227043"
       d=""
       id="path57"
       transform="matrix(0.26458333,0,0,0.26458333,72.264507,117.33301)" /><path
       style="fill:#225500;stroke-width:0.227043"
       d="m 211.59582,113.4713 c -1.30678,-1.22951 -4.2661,-3.92946 -6.57626,-5.99987 -7.8894,-7.07063 -10.57764,-10.236586 -12.93437,-15.232836 -1.23024,-2.608114 -3.09879,-7.827739 -2.8804,-8.046132 0.4217,-0.421696 8.15933,1.688612 10.99462,2.998595 4.96802,2.295364 9.33719,6.586994 11.74468,11.536229 1.20041,2.467764 1.82909,4.778204 2.14935,7.899014 0.26356,2.56841 0.28922,8.03854 0.0407,8.6689 -0.13648,0.34609 -0.54039,0.0559 -2.53828,-1.8239 z"
       id="path58"
       transform="matrix(0.26458333,0,0,0.26458333,72.264507,117.33301)" /><path
       style="fill:#225500;stroke-width:0.227043"
       d="m 24.279925,90.993897 c -0.407996,-0.464684 -1.342119,-1.759095 -2.075828,-2.876472 -5.614011,-8.549668 -7.469476,-14.593736 -7.151502,-23.29559 0.231557,-6.336943 1.633456,-11.535203 3.587888,-13.30394 0.46682,-0.422467 0.481165,-0.418947 1.0957,0.268836 0.894425,1.001036 2.969579,4.41921 4.336282,7.142684 1.404495,2.798783 2.508961,6.082585 3.088721,9.183395 0.603612,3.228383 0.558003,9.39824 -0.106575,14.417212 -0.528379,3.990377 -1.337367,8.798649 -1.533857,9.116577 -0.214828,0.347598 -0.489333,0.203203 -1.240829,-0.652702 z"
       id="path59"
       transform="matrix(0.26458333,0,0,0.26458333,72.264507,117.33301)" /><path
       style="fill:#225500;stroke-width:0.227043"
       d="m 48.700659,200.36155 c -6.526304,-0.4695 -12.549247,-3.00921 -18.049894,-7.61114 -2.157917,-1.80535 -6.213595,-5.95292 -7.473295,-7.64263 -1.646643,-2.20873 -1.989128,-2.10058 6.908734,-2.18181 8.611326,-0.0786 10.227272,0.0538 14.754729,1.2093 5.967745,1.52305 9.97776,3.2979 14.85201,6.57353 7.085163,4.76144 10.225817,6.99205 10.109546,7.18018 -0.160067,0.25899 -4.042463,1.45589 -6.230533,1.92081 -0.936551,0.19899 -3.644035,0.45206 -6.016631,0.56238 -4.815708,0.22392 -5.607773,0.22297 -8.854666,-0.0106 z"
       id="path60"
       transform="matrix(0.26458333,0,0,0.26458333,72.264507,117.33301)" /><path
       style="fill:#225500;stroke-width:0.227043"
       d="m 39.642795,142.07197 c -1.035901,-3.13698 -1.336536,-5.60442 -1.362405,-11.18185 -0.02272,-4.89814 0.0016,-5.19892 0.590844,-7.30544 1.232064,-4.40463 2.701941,-6.85528 6.176177,-10.29723 3.134227,-3.10511 7.778181,-6.14228 10.102607,-6.60717 0.845225,-0.16904 0.83072,-0.31132 0.357744,3.5091 -0.717021,5.79166 -1.794443,10.10928 -3.664278,14.68411 -1.266075,3.09763 -1.785927,4.02698 -4.953046,8.85466 -1.39266,2.12285 -3.380373,5.26455 -4.41714,6.98156 -1.036767,1.71701 -1.967025,3.12184 -2.06724,3.12184 -0.100215,0 -0.443684,-0.79181 -0.763263,-1.75958 z"
       id="path61"
       transform="matrix(0.26458333,0,0,0.26458333,72.264507,117.33301)" /><path
       style="fill:#225500;stroke-width:0.227043"
       d="m 198.17192,41.832618 c -4.68331,-5.653759 -5.50011,-6.710209 -6.84822,-8.857498 -2.05098,-3.266843 -3.21246,-6.502821 -3.77975,-10.530704 -0.4612,-3.274608 -0.23983,-11.048335 0.33087,-11.619035 0.26455,-0.264545 2.28163,1.403584 5.00502,4.139145 4.11201,4.130392 6.39359,7.612365 8.03298,12.259331 1.19657,3.391737 1.46359,5.491468 1.43622,11.293905 -0.0242,5.140072 -0.24335,7.0043 -0.82327,7.0043 -0.16372,0 -1.67296,-1.66025 -3.35385,-3.689444 z"
       id="path62"
       transform="matrix(0.26458333,0,0,0.26458333,72.264507,117.33301)" /><path
       style="fill:#225500;stroke-width:0.454085"
       d=""
       id="path63"
       transform="matrix(0.26458333,0,0,0.26458333,72.264507,117.33301)" /><path
       style="fill:#225500;stroke-width:0.160543"
       d="m 225.72407,118.78808 c 0,-0.67534 1.52023,-12.64655 1.77025,-13.94002 1.14528,-5.925093 4.39841,-12.983847 7.99688,-17.351889 3.62852,-4.40453 9.44299,-10.472151 9.876,-10.305989 0.32335,0.124081 0.67411,1.337701 1.02422,3.543718 0.2277,1.43474 0.28269,2.778722 0.27997,6.842543 -0.003,4.644228 -0.0327,5.188194 -0.36275,6.662552 -1.03607,4.628538 -3.04648,8.829335 -5.80086,12.121025 -1.95935,2.34157 -5.25368,5.83159 -6.99736,7.41303 -2.84518,2.58045 -7.78635,5.76295 -7.78635,5.01503 z"
       id="path64"
       transform="matrix(0.26458333,0,0,0.26458333,72.264507,117.33301)" /><path
       style="fill:#225500;stroke-width:0.160543"
       d="m 110.85524,204.06514 c -1.98147,-0.66888 -5.64571,-2.3531 -7.49186,-3.44354 -2.86455,-1.69195 -6.8334,-5.10341 -9.108991,-7.8297 -2.895932,-3.4695 -4.746864,-6.85825 -6.389928,-11.69891 -0.998281,-2.94105 -1.293,-4.29577 -1.498137,-6.8864 -0.225253,-2.84467 -0.150721,-9.31701 0.11029,-9.57755 0.308894,-0.30834 0.79356,-0.033 2.917202,1.65734 3.901838,3.10569 5.904714,4.85623 8.300474,7.25472 6.20045,6.2075 8.0636,9.27201 11.96068,19.67292 1.58171,4.22144 3.20214,8.63942 3.69498,10.0741 l 0.45498,1.32449 -0.67213,-0.003 c -0.36967,-0.002 -1.39457,-0.24664 -2.27756,-0.54471 z"
       id="path65"
       transform="matrix(0.26458333,0,0,0.26458333,72.264507,117.33301)" /><path
       style="fill:#338000;stroke-width:0.227043"
       d="m 79.919031,40.007543 c -0.06244,-0.0667 -1.748229,-0.240037 -3.746205,-0.385184 -4.321255,-0.313928 -4.654375,-0.370208 -4.654375,-0.786349 0,-0.579736 6.728976,-5.727271 10.557485,-8.07627 6.262576,-3.842432 11.77849,-4.586237 20.625634,-2.781308 1.00907,0.205862 1.83255,0.497442 1.89979,0.672685 0.16813,0.438116 -2.13341,3.360972 -4.16937,5.294931 -3.130402,2.973579 -6.570803,4.796804 -10.43323,5.529046 -1.812637,0.343641 -9.85863,0.76866 -10.079729,0.532449 z"
       id="path66"
       transform="matrix(0.26458333,0,0,0.26458333,72.264507,117.33301)" /><path
       style="fill:#338000;stroke-width:0.160543"
       d="m 26.65021,149.64539 c -4.401997,-1.55785 -6.649012,-2.82907 -11.773069,-6.66044 -4.659433,-3.48397 -6.6686604,-5.49106 -8.8931065,-8.88364 -2.4727064,-3.77122 -3.9195151,-7.629 -4.9249127,-13.13183 -0.48394554,-2.64878 -0.89812156,-6.13491 -0.89838368,-7.56172 -1.9048e-4,-1.03682 0.23491131,-2.07089 0.47083013,-2.07089 0.32766684,0 6.34516645,4.35712 9.72348275,7.04052 7.391836,5.87136 12.223909,13.07007 15.3832,22.91754 0.399544,1.24537 1.201652,3.61954 1.782462,5.27593 1.079575,3.0788 1.207298,3.61874 0.855339,3.6159 -0.110374,-8.9e-4 -0.887003,-0.2445 -1.725842,-0.54137 z"
       id="path67"
       transform="matrix(0.26458333,0,0,0.26458333,72.264507,117.33301)" /><path
       style="fill:#338000;stroke-width:0.454085"
       d="m 190.50538,167.46667 c -0.17644,-1.44852 -1.03569,-6.31176 -1.90944,-10.80721 -1.1766,-6.05359 -1.65311,-9.89275 -1.83722,-14.80204 -0.27563,-7.3499 0.15369,-14.48646 0.87146,-14.48646 0.25601,0 2.0568,1.54859 4.00176,3.44133 5.88968,5.73151 7.82946,10.51183 7.79963,19.22107 -0.0232,6.78441 -1.31787,11.18855 -4.78923,16.29226 -3.02967,4.45433 -3.71051,4.64211 -4.13696,1.14105 z"
       id="path68"
       transform="matrix(0.26458333,0,0,0.26458333,72.264507,117.33301)" /></g></svg>
