<svg xmlns="http://www.w3.org/2000/svg" viewBox="0 0 34 34" fill="currentColor" fill-rule="evenodd" aria-hidden="true"><path d="M 34 2.5 v 29 a 2.5 2.5 0 0 1 -2.5 2.5 h -29 A 2.5 2.5 0 0 1 0 31.5 v -29 A 2.5 2.5 0 0 1 2.5 0 h 29 A 2.5 2.5 0 0 1 34 2.5 M 10 13 H 5 v 16 h 5 Z m 0.45 -5.5 a 2.88 2.88 0 0 0 -2.86 -2.9 H 7.5 a 2.9 2.9 0 0 0 0 5.8 a 2.88 2.88 0 0 0 2.95 -2.81 Z M 29 19.28 c 0 -4.81 -3.06 -6.68 -6.1 -6.68 a 5.7 5.7 0 0 0 -5.06 2.58 h -0.14 V 13 H 13 v 16 h 5 v -8.51 a 3.32 3.32 0 0 1 3 -3.58 h 0.19 c 1.59 0 2.77 1 2.77 3.52 V 29 h 5 Z"/></svg>
